<svg xmlns="http://www.w3.org/2000/svg" viewBox="0 0 580 387">
<rect width="580" height="387" fill="#fff"/>
<rect y="258" width="580" height="64.5" fill="#e81b39"/>
<rect y="322.5" width="580" height="64.5" fill="#e81b39"/>
<polygon points="193,50 205,90 248,90 213,115 225,155 193,130 161,155 173,115 138,90 181,90" fill="#e81b39"/>
<polygon points="290,50 302,90 345,90 310,115 322,155 290,130 258,155 270,115 235,90 278,90" fill="#e81b39"/>
<polygon points="387,50 399,90 442,90 407,115 419,155 387,130 355,155 367,115 332,90 375,90" fill="#e81b39"/>
</svg>
